<svg xmlns="http://www.w3.org/2000/svg" version="1.1" xmlns:xlink="http://www.w3.org/1999/xlink" xmlns:svgjs="http://svgjs.dev/svgjs" viewBox="0 0 800 800"><defs><linearGradient x1="50%" y1="0%" x2="50%" y2="100%" id="ffflurry-grad" gradientTransform="rotate(270)"><stop stop-color="#f5f5f5" stop-opacity="1" offset="0%"></stop><stop stop-color="hsl(1.4, 100%, 67%)" stop-opacity="1" offset="45%"></stop><stop stop-color="hsl(167, 52%, 78%)" stop-opacity="1" offset="100%"></stop></linearGradient></defs><rect width="100%" height="100%" fill="#f5f5f5"></rect><g fill="url(#ffflurry-grad)"><rect width="591" height="3" x="-31.5" y="53.5" rx="1.5" transform="rotate(45, 264, 55)" opacity="0.29"></rect><rect width="379" height="3" x="70.5" y="443.5" rx="1.5" transform="rotate(45, 260, 445)" opacity="0.13"></rect><rect width="332" height="3" x="102" y="386.5" rx="1.5" transform="rotate(45, 268, 388)" opacity="0.78"></rect><rect width="140" height="3" x="286" y="327.5" rx="1.5" transform="rotate(45, 356, 329)" opacity="0.70"></rect><rect width="274" height="3" x="456" y="48.5" rx="1.5" transform="rotate(45, 593, 50)" opacity="0.09"></rect><rect width="480" height="3" x="-145" y="437.5" rx="1.5" transform="rotate(45, 95, 439)" opacity="0.28"></rect><rect width="378" height="3" x="-12" y="755.5" rx="1.5" transform="rotate(45, 177, 757)" opacity="0.81"></rect><rect width="412" height="3" x="336" y="755.5" rx="1.5" transform="rotate(45, 542, 757)" opacity="0.54"></rect><rect width="145" height="3" x="579.5" y="228.5" rx="1.5" transform="rotate(45, 652, 230)" opacity="0.38"></rect><rect width="668" height="3" x="-18" y="654.5" rx="1.5" transform="rotate(45, 316, 656)" opacity="0.74"></rect><rect width="431" height="3" x="279.5" y="256.5" rx="1.5" transform="rotate(45, 495, 258)" opacity="0.78"></rect><rect width="242" height="3" x="395" y="506.5" rx="1.5" transform="rotate(45, 516, 508)" opacity="0.47"></rect><rect width="78" height="3" x="630" y="130.5" rx="1.5" transform="rotate(45, 669, 132)" opacity="0.14"></rect><rect width="249" height="3" x="-13.5" y="729.5" rx="1.5" transform="rotate(45, 111, 731)" opacity="0.48"></rect><rect width="145" height="3" x="330.5" y="236.5" rx="1.5" transform="rotate(45, 403, 238)" opacity="0.58"></rect><rect width="346" height="3" x="591" y="97.5" rx="1.5" transform="rotate(45, 764, 99)" opacity="0.20"></rect><rect width="449" height="3" x="-17.5" y="669.5" rx="1.5" transform="rotate(45, 207, 671)" opacity="0.42"></rect><rect width="602" height="3" x="112" y="587.5" rx="1.5" transform="rotate(45, 413, 589)" opacity="0.64"></rect><rect width="46" height="3" x="526" y="426.5" rx="1.5" transform="rotate(45, 549, 428)" opacity="0.79"></rect><rect width="220" height="3" x="-20" y="186.5" rx="1.5" transform="rotate(45, 90, 188)" opacity="0.23"></rect><rect width="194" height="3" x="-69" y="745.5" rx="1.5" transform="rotate(45, 28, 747)" opacity="0.95"></rect><rect width="690" height="3" x="-30" y="547.5" rx="1.5" transform="rotate(45, 315, 549)" opacity="0.88"></rect><rect width="528" height="3" x="-173" y="597.5" rx="1.5" transform="rotate(45, 91, 599)" opacity="0.78"></rect><rect width="364" height="3" x="169" y="99.5" rx="1.5" transform="rotate(45, 351, 101)" opacity="0.50"></rect><rect width="146" height="3" x="174" y="308.5" rx="1.5" transform="rotate(45, 247, 310)" opacity="0.40"></rect><rect width="219" height="3" x="-82.5" y="421.5" rx="1.5" transform="rotate(45, 27, 423)" opacity="0.95"></rect><rect width="375" height="3" x="169.5" y="172.5" rx="1.5" transform="rotate(45, 357, 174)" opacity="0.25"></rect><rect width="251" height="3" x="56.5" y="379.5" rx="1.5" transform="rotate(45, 182, 381)" opacity="0.65"></rect><rect width="190" height="3" x="21" y="668.5" rx="1.5" transform="rotate(45, 116, 670)" opacity="0.67"></rect><rect width="98" height="3" x="702" y="185.5" rx="1.5" transform="rotate(45, 751, 187)" opacity="0.91"></rect><rect width="328" height="3" x="428" y="669.5" rx="1.5" transform="rotate(45, 592, 671)" opacity="0.45"></rect><rect width="474" height="3" x="454" y="758.5" rx="1.5" transform="rotate(45, 691, 760)" opacity="0.50"></rect><rect width="36" height="3" x="412" y="313.5" rx="1.5" transform="rotate(45, 430, 315)" opacity="0.40"></rect><rect width="42" height="3" x="357" y="27.5" rx="1.5" transform="rotate(45, 378, 29)" opacity="0.60"></rect><rect width="361" height="3" x="-115.5" y="516.5" rx="1.5" transform="rotate(45, 65, 518)" opacity="0.79"></rect><rect width="427" height="3" x="235.5" y="384.5" rx="1.5" transform="rotate(45, 449, 386)" opacity="0.65"></rect><rect width="82" height="3" x="277" y="252.5" rx="1.5" transform="rotate(45, 318, 254)" opacity="0.40"></rect><rect width="764" height="3" x="-212" y="278.5" rx="1.5" transform="rotate(45, 170, 280)" opacity="0.49"></rect><rect width="269" height="3" x="33.5" y="50.5" rx="1.5" transform="rotate(45, 168, 52)" opacity="0.52"></rect><rect width="379" height="3" x="49.5" y="215.5" rx="1.5" transform="rotate(45, 239, 217)" opacity="0.12"></rect><rect width="238" height="3" x="459" y="271.5" rx="1.5" transform="rotate(45, 578, 273)" opacity="0.72"></rect><rect width="587" height="3" x="452.5" y="271.5" rx="1.5" transform="rotate(45, 746, 273)" opacity="0.89"></rect><rect width="353" height="3" x="585.5" y="367.5" rx="1.5" transform="rotate(45, 762, 369)" opacity="0.40"></rect><rect width="451" height="3" x="523.5" y="28.5" rx="1.5" transform="rotate(45, 749, 30)" opacity="0.18"></rect><rect width="421" height="3" x="-146.5" y="315.5" rx="1.5" transform="rotate(45, 64, 317)" opacity="0.83"></rect><rect width="336" height="3" x="504" y="43.5" rx="1.5" transform="rotate(45, 672, 45)" opacity="0.36"></rect><rect width="304" height="3" x="375" y="575.5" rx="1.5" transform="rotate(45, 527, 577)" opacity="0.94"></rect><rect width="471" height="3" x="456.5" y="515.5" rx="1.5" transform="rotate(45, 692, 517)" opacity="0.69"></rect><rect width="507" height="3" x="215.5" y="461.5" rx="1.5" transform="rotate(45, 469, 463)" opacity="0.99"></rect><rect width="561" height="3" x="228.5" y="52.5" rx="1.5" transform="rotate(45, 509, 54)" opacity="0.14"></rect><rect width="232" height="3" x="652" y="515.5" rx="1.5" transform="rotate(45, 768, 517)" opacity="0.66"></rect><rect width="580" height="3" x="280" y="162.5" rx="1.5" transform="rotate(45, 570, 164)" opacity="0.30"></rect><rect width="379" height="3" x="60.5" y="504.5" rx="1.5" transform="rotate(45, 250, 506)" opacity="0.43"></rect><rect width="80" height="3" x="399" y="91.5" rx="1.5" transform="rotate(45, 439, 93)" opacity="0.32"></rect><rect width="336" height="3" x="223" y="488.5" rx="1.5" transform="rotate(45, 391, 490)" opacity="0.22"></rect><rect width="112" height="3" x="551" y="547.5" rx="1.5" transform="rotate(45, 607, 549)" opacity="0.62"></rect><rect width="87" height="3" x="619.5" y="331.5" rx="1.5" transform="rotate(45, 663, 333)" opacity="0.89"></rect><rect width="46" height="3" x="95" y="778.5" rx="1.5" transform="rotate(45, 118, 780)" opacity="0.70"></rect><rect width="312" height="3" x="531" y="612.5" rx="1.5" transform="rotate(45, 687, 614)" opacity="0.82"></rect><rect width="241" height="3" x="-95.5" y="570.5" rx="1.5" transform="rotate(45, 25, 572)" opacity="0.42"></rect><rect width="225" height="3" x="129.5" y="142.5" rx="1.5" transform="rotate(45, 242, 144)" opacity="0.39"></rect><rect width="624" height="3" x="-149" y="479.5" rx="1.5" transform="rotate(45, 163, 481)" opacity="0.63"></rect><rect width="57" height="3" x="444.5" y="165.5" rx="1.5" transform="rotate(45, 473, 167)" opacity="0.19"></rect><rect width="140" height="3" x="229" y="332.5" rx="1.5" transform="rotate(45, 299, 334)" opacity="0.59"></rect><rect width="64" height="3" x="2" y="667.5" rx="1.5" transform="rotate(45, 34, 669)" opacity="0.80"></rect><rect width="680" height="3" x="-145" y="580.5" rx="1.5" transform="rotate(45, 195, 582)" opacity="0.53"></rect><rect width="337" height="3" x="585.5" y="685.5" rx="1.5" transform="rotate(45, 754, 687)" opacity="0.59"></rect><rect width="360" height="3" x="141" y="754.5" rx="1.5" transform="rotate(45, 321, 756)" opacity="0.11"></rect><rect width="110" height="3" x="358" y="741.5" rx="1.5" transform="rotate(45, 413, 743)" opacity="0.64"></rect><rect width="62" height="3" x="670" y="418.5" rx="1.5" transform="rotate(45, 701, 420)" opacity="0.75"></rect><rect width="306" height="3" x="91" y="752.5" rx="1.5" transform="rotate(45, 244, 754)" opacity="0.46"></rect><rect width="669" height="3" x="138.5" y="661.5" rx="1.5" transform="rotate(45, 473, 663)" opacity="0.28"></rect><rect width="43" height="3" x="39.5" y="776.5" rx="1.5" transform="rotate(45, 61, 778)" opacity="0.60"></rect><rect width="323" height="3" x="463.5" y="442.5" rx="1.5" transform="rotate(45, 625, 444)" opacity="0.83"></rect><rect width="207" height="3" x="-47.5" y="69.5" rx="1.5" transform="rotate(45, 56, 71)" opacity="0.42"></rect><rect width="166" height="3" x="264" y="412.5" rx="1.5" transform="rotate(45, 347, 414)" opacity="0.25"></rect><rect width="92" height="3" x="512" y="348.5" rx="1.5" transform="rotate(45, 558, 350)" opacity="0.09"></rect></g></svg>